<svg width="16" height="16" viewBox="0 0 16 16" fill="none" xmlns="http://www.w3.org/2000/svg">
<g clip-path="url(#clip0_1_18)">
<rect width="16" height="16" fill="black"/>
<path d="M7.46666 12.6444L7.48029 12.5899V2.80382H9.85185C10.9513 2.80382 11.8917 2.99463 12.6732 3.37626C13.4637 3.75789 14.0679 4.31216 14.4859 5.03908C14.913 5.7569 15.1265 6.63374 15.1265 7.66959C15.1265 9.25063 14.654 10.4773 13.709 11.3496C12.7731 12.2128 11.4556 12.6444 9.75644 12.6444H7.46666ZM8.74785 11.4723H9.94725C11.1921 11.4723 12.1462 11.1451 12.8095 10.4909C13.4819 9.83671 13.8181 8.89626 13.8181 7.66959C13.8181 6.45201 13.4773 5.53429 12.7958 4.91641C12.1235 4.28945 11.1376 3.97596 9.83822 3.97596H8.74785V11.4723Z" fill="white"/>
<path d="M1.34993 12.6444C1.21363 12.5172 1.11822 12.3673 1.06371 12.1946C1.00919 12.022 0.991015 11.8584 1.00919 11.704L6.50193 3.97596H1.2C1.1364 3.8215 1.10005 3.62159 1.09097 3.37626C1.08188 3.13093 1.11822 2.94011 1.2 2.80382H7.68771C7.85126 2.88559 7.96938 3.02643 8.04208 3.22633C8.12385 3.41715 8.15566 3.61251 8.13748 3.81241L2.68563 11.4723H8.26015C8.34193 11.6086 8.38282 11.7994 8.38282 12.0447C8.38282 12.29 8.34193 12.4899 8.26015 12.6444H1.34993Z" fill="white"/>
</g>
<defs>
<clipPath id="clip0_1_18">
<rect width="16" height="16" fill="white"/>
</clipPath>
</defs>
</svg>
