<svg width="270" height="270" viewBox="0 0 270 270" fill="none" xmlns="http://www.w3.org/2000/svg">
<g clip-path="url(#clip0_1_16)">
<rect width="270" height="270" fill="black"/>
<path d="M126 221L126.23 220.08V54.94H166.25C184.803 54.94 200.673 58.16 213.86 64.6C227.2 71.04 237.397 80.3933 244.45 92.66C251.657 104.773 255.26 119.57 255.26 137.05C255.26 163.73 247.287 184.43 231.34 199.15C215.547 213.717 193.313 221 164.64 221H126ZM147.62 201.22H167.86C188.867 201.22 204.967 195.7 216.16 184.66C227.507 173.62 233.18 157.75 233.18 137.05C233.18 116.503 227.43 101.017 215.93 90.59C204.583 80.01 187.947 74.72 166.02 74.72H147.62V201.22Z" fill="white"/>
<path d="M22.78 221C20.48 218.853 18.87 216.323 17.95 213.41C17.03 210.497 16.7233 207.737 17.03 205.13L109.72 74.72H20.25C19.1767 72.1133 18.5633 68.74 18.41 64.6C18.2567 60.46 18.87 57.24 20.25 54.94H129.73C132.49 56.32 134.483 58.6967 135.71 62.07C137.09 65.29 137.627 68.5867 137.32 71.96L45.32 201.22H139.39C140.77 203.52 141.46 206.74 141.46 210.88C141.46 215.02 140.77 218.393 139.39 221H22.78Z" fill="white"/>
</g>
<defs>
<clipPath id="clip0_1_16">
<rect width="270" height="270" fill="white"/>
</clipPath>
</defs>
</svg>
